<svg version="1.0" xmlns="http://www.w3.org/2000/svg" width="346.667" height="346.667" viewBox="0 0 260 260"><path d="M20.3 1.8C10.3 5.3 3.2 13.3 1 23.4.2 27 0 59.5.2 133l.3 104.5 2.8 5.7c3.2 6.4 8 11.1 14.6 14.2 4.6 2.1 4.9 2.1 112.1 2.1 107.2 0 107.5 0 112.1-2.1 6.6-3.1 11.4-7.8 14.6-14.2l2.8-5.7V130c0-107.2 0-107.5-2.1-112.1-3.1-6.6-7.8-11.4-14.2-14.6L237.5.5l-106-.2C31.8.1 25.2.2 20.3 1.8zM139 39.9c0 7.2.6 8.1 5.1 8.1 1 0 6 1.3 11.1 3 22.2 7.1 39.7 22.4 49.8 43.4 3.4 7.1 5.1 12.5 7.5 23.8.5 2.7.7 2.8 7.5 2.8h7v18h-6.9c-7.2 0-8.1.6-8.1 5.1 0 1-1.3 6-3 11.1-7.1 22.2-22.4 39.7-43.4 49.8-7.1 3.4-12.5 5.1-23.8 7.5-2.7.5-2.8.7-2.8 7.5v7h-18v-6.9c0-7.2-.6-8.1-5.1-8.1-1 0-6-1.3-11.1-3-22.2-7.1-39.7-22.4-49.8-43.4-3.4-7.1-5.1-12.5-7.5-23.8-.5-2.7-.7-2.8-7.5-2.8h-7v-18h6.9c7.2 0 8.1-.6 8.1-5.1 0-1 1.3-6 3-11.1C58.1 82.6 73.4 65.1 94.4 55c7.1-3.4 12.5-5.1 23.9-7.5 2.6-.5 2.7-.7 2.7-7.5v-7h18v6.9z"/><path d="M120.5 66.1c-7.9 1.2-11.6 2.4-20.6 7C76.3 85.3 62.4 111.8 66 138c1.3 9.5 2.7 13.7 7.5 22.9 9.4 17.9 27.4 30.2 48.3 33.1 31.5 4.3 62.4-16.6 70.8-48 2.2-8.5 2.3-23.4.1-31.9-6.7-25.3-28.2-44.4-54.1-48-8.6-1.2-9.6-1.2-18.1 0zm24.1 32.8c14 6.5 22.6 22.7 19.5 37.1-6 27.9-38.8 38.2-58.6 18.4-13.5-13.5-13.4-35.3.1-48.9 10.4-10.4 25.3-12.9 39-6.6z"/></svg>