<svg width="16" height="11" fill="none" xmlns="http://www.w3.org/2000/svg"><path d="M15.074 1.29l-3.93 4a.071.071 0 000 .1l2.75 2.928a.474.474 0 11-.672.672l-2.74-2.908a.075.075 0 00-.106 0l-.668.68a2.94 2.94 0 01-3.262.644 3 3 0 01-.978-.67l-.643-.655a.075.075 0 00-.106 0L1.98 9a.476.476 0 01-.672-.672l2.75-2.929a.078.078 0 000-.1l-3.934-4A.072.072 0 000 1.35v8.01a1.172 1.172 0 001.17 1.17h12.86a1.172 1.172 0 001.168-1.17V1.35a.073.073 0 00-.124-.06z" fill="#000"/><path d="M7.6 6.688a1.986 1.986 0 001.428-.6L14.76.255a1.148 1.148 0 00-.723-.256H1.168c-.263 0-.519.09-.723.256l5.731 5.833a1.986 1.986 0 001.424.6z" fill="#000"/></svg>