<svg width="16" height="15" fill="none" xmlns="http://www.w3.org/2000/svg"><path d="M14.57 11.746a12.6 12.6 0 00-2.632-1.761c-.789-.379-1.078-.371-1.636.031-.465.336-.765.648-1.3.531a10.991 10.991 0 01-4.545-4.546c-.113-.539.2-.836.531-1.3.4-.558.414-.847.031-1.636A12.351 12.351 0 003.26.433c-.575-.574-.7-.449-1.02-.336a5.8 5.8 0 00-.933.5A2.815 2.815 0 00.186 1.78c-.224.48-.48 1.375.831 3.71a20.7 20.7 0 003.64 4.854 20.779 20.779 0 004.853 3.64c2.335 1.312 3.23 1.054 3.71.832a2.77 2.77 0 001.183-1.121c.195-.295.362-.607.5-.933.116-.313.243-.442-.333-1.016z" fill="#000"/></svg>